<svg width="149" height="29" viewBox="0 0 149 29" fill="none" xmlns="http://www.w3.org/2000/svg">
<g clip-path="url(#clip0_307_872)">
<path d="M28.6674 28.4736V11.1434C28.6674 9.41942 30.0776 8.02002 31.8151 8.02002H41.8052C42.1818 8.02002 42.5447 8.18096 42.7839 8.47012C44.1529 10.1205 42.9873 11.9891 41.3901 11.9891H32.67V28.4736H28.6701H28.6674Z" fill="#07CC74"/>
<path d="M102.362 28.4736V11.1434C102.362 9.41942 103.772 8.02002 105.51 8.02002H115.5C115.876 8.02002 116.239 8.18096 116.478 8.47012C117.847 10.1205 116.682 11.9891 115.085 11.9891H106.365V28.4736H102.365H102.362Z" fill="#07CC74"/>
<path d="M25.5004 14.0594C25.6214 21.2255 21.2174 28.4734 11.219 28.4734H0V0.130859H11.2217C21.0139 0.130859 25.3795 7.0542 25.5032 14.0594H25.5004ZM5.34421 23.3314H11.219C17.7068 23.3314 20.2772 18.634 20.1535 14.0185C20.0325 9.60476 17.4209 5.19106 11.219 5.19106H5.34421V23.3314Z" fill="#07CC74"/>
<path d="M51.8201 2.88326C51.8201 6.72956 45.9453 6.72956 45.9453 2.88326C45.9453 -0.963039 51.8201 -0.963039 51.8201 2.88326ZM46.3934 8.42902V28.4734H51.372V8.43175H46.3934V8.42902Z" fill="#07CC74"/>
<path d="M76.7075 8.47266L68.1386 28.5552H62.7532L54.1431 8.47266H59.5697L62.3436 15.0714L65.4445 23.4923L68.5042 15.1532L71.2781 8.47266H76.7047H76.7075Z" fill="#07CC74"/>
<path d="M83.3603 20.2543C83.6874 22.7231 85.8482 24.5044 89.3587 24.5044C91.1951 24.5044 93.6033 23.8169 94.7442 22.6412L97.9276 25.7592C95.8053 27.9442 92.3387 28.9972 89.2763 28.9972C82.3403 28.9972 78.2195 24.7472 78.2195 18.3503C78.2195 11.9534 82.3816 7.90527 88.9106 7.90527C95.4397 7.90527 99.8465 12.0353 99.0712 20.2543H83.363H83.3603ZM94.2961 16.1653C93.9689 13.5738 91.9291 12.2781 89.0728 12.2781C86.3787 12.2781 84.1767 13.5738 83.4427 16.1653H94.2961Z" fill="#07CC74"/>
<path d="M149 18.514C149 24.2643 145.041 28.9181 138.515 28.9181C131.989 28.9181 128.068 24.2616 128.068 18.514C128.068 12.7663 132.066 8.10986 138.474 8.10986C144.882 8.10986 149 12.8073 149 18.514ZM133.047 18.514C133.047 21.5501 134.883 24.3843 138.515 24.3843C142.147 24.3843 143.983 21.5501 143.983 18.514C143.983 15.4778 141.861 12.6027 138.515 12.6027C134.925 12.6027 133.047 15.5188 133.047 18.514Z" fill="#07CC74"/>
<path d="M127.189 28.4735H121.221L111.918 17.5539C111.626 17.2129 111.467 16.7819 111.467 16.3345C111.467 15.2925 112.319 14.4468 113.369 14.4468H115.703C119.096 14.4468 121.138 12.581 121.138 9.46028C121.138 6.3396 119.096 4.47373 115.703 4.47373H102.343V0.0927734H115.744C121.872 0.0927734 125.878 3.8245 125.878 9.46028C125.878 14.1631 123.06 17.5266 118.482 18.5005L127.186 28.4763L127.189 28.4735Z" fill="#07CC74"/>
</g>
<defs>
<clipPath id="clip0_307_872">
<rect width="149" height="29" fill="white"/>
</clipPath>
</defs>
</svg>
