<svg xmlns="http://www.w3.org/2000/svg" width="1440" height="643" viewBox="0 0 1440 643" fill="none"><g clip-path="url(#clip0_307_930)"><path style="mix-blend-mode:multiply" d="M1725.24 109.686L1435.15 108.914C1408.27 92.4132 1384.39 77.6882 1374.89 71.8279L1387.75 72.0832L1388.73 71.9236C1398.95 70.2964 1449.27 62.2611 1453.05 61.4209C1455.95 60.7721 1456.22 59.7139 1452.5 54.0185C1450.62 51.1469 1447.79 47.2755 1444.1 42.5532C1439.76 36.9908 1435.28 31.5666 1433.05 28.9024C1447.24 28.477 1458.47 28.0249 1462.76 27.5836C1477.96 26.0201 1565.81 18.7294 1566.69 18.6602C1566.76 18.6549 1566.83 18.6496 1566.9 18.639C1569.01 18.4209 1569.84 17.6605 1568.73 16.9107C1567.6 16.1396 1564.86 15.6663 1562.6 15.8524C1559.04 16.1449 1474.23 23.1485 1458.9 24.7173C1454.92 25.1267 1443.27 25.5681 1428.29 25.9935C1427.56 25.9031 1426.78 25.8659 1426 25.9084C1425.43 25.9404 1424.92 26.0042 1424.47 26.0999C1395.99 26.8816 1357.53 27.5942 1335.76 27.9558L1339 1.4358C1339.09 0.71257 1337.3 0.0744308 1335 0.00529903C1332.7 -0.0585149 1330.75 0.46795 1330.65 1.19117L1317.24 95.0881L1046.85 62.6493L1084.24 15.6131C1085.45 14.0922 1082.79 12.7255 1078.31 12.5447C1073.84 12.3693 1069.2 13.4435 1067.93 14.959L1029.59 60.8944L777.254 38.8946C774.113 38.6181 769.833 39.3945 767.686 40.6335C765.527 41.8779 766.335 43.1169 769.502 43.3988L790.203 45.2334L747.559 73.2903C732.312 73.1946 718.329 73.1733 710.603 73.168L752.652 46.4353C753.999 45.5791 753.308 44.7761 751.114 44.6378C748.915 44.4996 746.047 45.0792 744.687 45.9354L662.507 97.5502L614.192 94.6414L613.927 78.523L607.171 60.9583C606.732 59.8202 603.064 59.5224 598.963 60.2882C594.848 61.0593 591.828 62.6174 592.232 63.7661L598.346 81.3043L597.529 128.957L512.072 125.416H512.068C512.068 125.416 512.068 125.416 512.063 125.416L417.282 121.486L340.833 118.316C338.347 118.215 334.51 119.061 332.255 120.21C329.991 121.363 330.178 122.39 332.681 122.496L405.054 125.538L283.159 193.34L236.24 190.926C232.047 190.708 225.203 192.346 220.927 194.595C216.621 196.861 216.543 198.892 220.793 199.115L268.281 201.62L96.9158 296.937C93.6482 296.894 88.434 298.304 84.8536 300.266C81.2036 302.265 80.6344 304.073 83.4196 304.446L-420.205 584.578C-427.626 588.705 -430.216 592.475 -425.936 592.97C-424.971 593.082 -423.746 593.018 -422.338 592.805C-417.48 592.066 -410.489 589.55 -404.783 586.344L-173.163 456.153L-118.727 461.614L-328.877 585.376C-335.917 589.524 -338.111 593.294 -333.722 593.768C-332.749 593.874 -331.532 593.805 -330.159 593.597C-325.323 592.853 -318.501 590.311 -313.065 587.072L-104.753 463.018L-44.1637 469.096L-244.355 593.916C-251.133 598.144 -253.054 602.005 -248.592 602.51C-247.592 602.622 -246.354 602.558 -244.963 602.34C-240.144 601.585 -233.483 599.006 -228.269 595.714L-29.868 470.532L30.3259 476.573L-129.108 582.605C-135.339 586.748 -136.777 590.529 -132.262 591.013C-131.254 591.119 -130.038 591.055 -128.686 590.843C-123.976 590.098 -117.654 587.567 -112.857 584.339L44.9517 478.041L173.295 490.921L9.44285 614.305C3.55512 618.74 2.5818 622.808 7.32239 623.361C8.4 623.484 9.67314 623.42 11.0723 623.186C15.839 622.399 22.0048 619.708 26.5108 616.267L188.551 492.452L347.29 508.379L252.495 590.667C247.611 594.906 247.416 598.894 252.095 599.543C253.242 599.702 254.576 599.644 256.006 599.404C260.412 598.665 265.713 596.198 269.354 592.98L363.341 509.99L602.791 534.016L551.422 598.878C544.47 607.652 547.155 615.677 557.549 616.655C559.821 616.873 562.268 616.73 564.775 616.283C573.739 614.683 583.376 609.216 588.569 602.319L637.348 537.489L1155.17 589.449C1161.53 593.385 1167.95 596.405 1174.04 597.782C1179.45 599.006 1195.72 601.383 1218.28 604.408L1214.19 633.258C1213.52 638.007 1217.71 642.367 1223.57 642.952C1224.89 643.085 1226.19 643.011 1227.4 642.766C1231.56 641.92 1234.8 639.033 1235.25 635.342L1238.66 607.099C1325.45 618.389 1471.32 635.656 1493.88 638.315C1496.1 638.576 1498.19 638.48 1500.06 638.086C1505.88 636.853 1509.62 632.721 1509.04 627.366C1508.29 620.373 1500.44 613.943 1491.54 612.922C1444.21 607.498 1387.41 600.883 1335.62 594.703L1338.83 495.856L1341.83 403.474L1556.3 424.001L1604.59 599.037C1605.83 603.536 1611.67 607.562 1617.63 607.993C1618.88 608.083 1620.03 608.009 1621.06 607.791C1624.95 606.972 1627.06 604.132 1626.01 600.569L1572.38 419.885L1549.31 329.689L1534.88 247.524L1858.95 266.625C1860.43 266.71 1861.75 266.657 1862.87 266.482C1866.47 265.918 1868 264.121 1866.34 261.834C1864.19 258.856 1857.47 256.176 1851.33 255.819L1805.83 253.198L1623.01 211.756C1613.1 207.119 1548.61 176.866 1531.84 167.591C1523.59 163.029 1483.16 138.365 1445.71 115.397L1731.24 116.258C1732.04 116.258 1732.78 116.216 1733.45 116.136C1736.57 115.748 1737.94 114.482 1736.54 112.977C1734.86 111.169 1729.81 109.707 1725.24 109.691L1725.24 109.686ZM1424.15 29.1576C1434.24 41.4737 1444.6 55.3905 1445.45 58.6875C1437.74 60.033 1406.07 65.0955 1385.05 68.4245L1330.95 67.3609L1335.4 30.9923C1348.54 30.7796 1391.32 30.0457 1424.15 29.1576ZM1330.51 70.9398L1363.51 71.5992C1369.71 75.4866 1393.29 90.2542 1421.02 107.542L1327.41 96.3112L1330.51 70.9398ZM1335.59 226.077L1286.3 223.237L1308.5 159.753L1351.35 163.747L1335.59 226.082L1335.59 226.077ZM1363.02 164.831L1510.48 178.573L1519.46 236.681L1348.64 226.832L1363.02 164.831ZM1082.74 394.216L1082.23 393.567L1028.08 373.445L1087 379.081L1082.74 394.216ZM992.671 360.278L818.772 295.639L837.4 261.68L1113.25 285.972L1103.4 320.899L909.009 301.388C905.355 301.021 901.07 302.462 899.419 304.616C897.759 306.786 899.389 308.854 903.078 309.232L1101.01 329.402L1089.73 369.419L992.68 360.283L992.671 360.278ZM697.846 414.004L493.17 395.354L660.091 247.96L788.009 300.154L697.842 414.004H697.846ZM500.409 129.564L389.329 198.823L342.918 196.435L458.187 127.787L500.409 129.564ZM549.058 131.611L443.774 201.631L399.91 199.371L509.908 129.962L549.058 131.611ZM375.733 207.3L217.664 305.86L165.644 302.005L328.827 204.827L375.738 207.3H375.733ZM386.448 207.863L430.874 210.208L280.091 310.481L229.726 306.748L386.448 207.863ZM441.75 210.777L483.011 212.952C482.951 212.995 482.877 213.032 482.82 213.069L338.973 314.837L292.38 311.385L441.75 210.772V210.777ZM665.109 102.102L699.015 105.24L638.104 145.315L615.579 143.028L614.918 134.009L665.109 102.097V102.102ZM1025.29 66.0581L959.352 124.581L922.683 121.225C929.405 115.03 934.832 110.143 938.204 107.308C947.32 99.6401 950.162 94.301 946.881 91.2912C945.026 89.5894 941.772 89.1587 940.637 89.063C938.113 88.8184 897.655 84.8619 887.166 84.2557C879.079 83.7877 858.661 80.012 851.561 78.6135L851.17 78.539L850.718 78.5018C850.614 78.4911 846.316 78.1242 840.455 77.5924C840.077 77.2627 839.347 77.0128 838.282 76.9224C837.27 76.8373 836.136 76.9117 835.063 77.0926C827.332 76.3693 818.481 75.4866 812.776 74.758C810.447 74.4602 805.533 74.2209 799.024 74.0242L834.741 49.1846L1025.29 66.0581H1025.29ZM1132.18 78.8155L1091.67 134.674L981.035 124.485L1042.51 67.898L1132.17 78.8208L1132.18 78.8155ZM1175.87 84.1387L1142.45 139.354L1102.01 135.626L1141.27 79.927L1175.87 84.1387ZM1220.39 89.5629L1191.17 143.842L1153.03 140.327L1185.23 85.282L1220.39 89.5629ZM1266.24 95.1466L1242.91 148.607L1201.98 144.836L1230 90.7328L1266.24 95.1466ZM1315.87 101.193L1298.8 153.754L1253.96 149.622L1276.11 96.3484L1315.87 101.193ZM1256.25 336.284C1256.01 336.246 1255.78 336.193 1255.54 336.172L1117.69 322.335L1126.89 287.173L1261.52 299.032L1256.25 336.289V336.284ZM841.241 254.66L842.897 251.64L873.022 223.907L973.431 226.05L959.682 249.353C958.583 251.214 960.547 252.873 964.084 253.038C964.853 253.075 965.635 253.038 966.396 252.937C969.124 252.581 971.588 251.416 972.418 249.954L985.892 226.311L1061.26 227.917L1045.43 256.378C1044.37 258.276 1046.4 260.047 1049.98 260.324C1050.87 260.393 1051.78 260.361 1052.66 260.244C1055.25 259.893 1057.54 258.792 1058.3 257.367L1073.95 228.183L1270.96 232.384L1262.63 291.215L841.241 254.644V254.66ZM673.326 237.989L696.673 220.935L743.483 221.716L711.498 253.166L673.33 237.989H673.326ZM640.424 150.925L672.683 154.244L619.098 191.011L617.291 166.342L640.424 150.925ZM616.778 159.349L615.974 148.41L631.043 149.957L616.778 159.343V159.349ZM845.348 82.0488C847.285 82.4316 855.55 84.0483 864.314 85.5054L828.345 112.589L797.49 109.765L836.983 81.299C841.072 81.6712 844.192 81.9424 845.348 82.0434V82.0488ZM936.231 92.8386C937.148 93.0886 942.523 95.1625 928.984 106.362C925.494 109.249 919.946 114.153 913.098 120.342L881.917 117.487L914.718 90.7381C926.033 91.8123 935.884 92.7855 936.092 92.8067L935.862 92.8333H936.227L936.231 92.8386ZM976.355 128.798L1088.37 139.237L1056.71 182.885L927.902 173.393L976.35 128.798H976.355ZM1162.75 220.584L1174.75 197.414L1220.12 200.801L1211.06 221.578L1162.75 220.584ZM1043.86 218.132L1064.28 189.166L1162.82 196.526L1150 220.323L1043.86 218.137L1043.86 218.132ZM882.907 214.814L922.292 178.562L1052.79 188.31L1031.34 217.877L882.903 214.819L882.907 214.814ZM1177.66 191.798L1199.52 149.591L1240.8 153.435L1222.61 195.106L1177.66 191.793V191.798ZM1165.83 190.926L1125.2 187.932L1150.31 145.007L1188.63 148.58L1165.83 190.926ZM1113.58 187.076L1068.12 183.726L1098.79 140.205L1139.65 144.012L1113.58 187.076H1113.58ZM905.398 172.468L871.849 169.059C888.048 153.648 905.02 137.599 918.047 125.517L954.499 128.894L905.398 172.468ZM861.486 168.006L824.564 164.257L876.763 121.693L908.387 124.623C895.135 136.689 877.928 152.664 861.49 168.006H861.486ZM814.436 163.225L777.337 159.455L832.147 117.561L867.286 120.816L814.432 163.225H814.436ZM872.509 116.631L837.557 113.435L872.431 86.7816C876.485 87.3666 880.231 87.8186 883.012 87.9835C887.105 88.2228 896.243 89.0258 905.811 89.9138L872.509 116.636V116.631ZM822.874 116.705L767.43 158.45L734.567 155.11L791.845 113.828L822.874 116.7V116.705ZM656.832 211.139L727.888 159.923L760.955 163.326L696.608 211.777L656.832 211.139ZM724.856 154.127L689.064 150.489L747.659 109.739L782.742 112.988L724.856 154.127ZM718.112 158.918L644.9 210.948L620.528 210.554L619.663 198.754L682.247 155.227L718.112 158.918ZM600.11 204.04L592.471 209.283L555.706 207.39L599.102 178.466L600.11 204.04ZM684.411 220.732L665.022 234.692L627.528 219.781L684.411 220.732ZM708.631 211.974L770.928 164.358L808.24 168.198L752.795 212.687L708.626 211.979L708.631 211.974ZM818.442 169.245L856.019 173.111C834.971 192.787 816.561 210.134 812.832 213.649L764.931 212.878L818.442 169.245ZM866.456 174.185L899.615 177.594L858.175 214.372L824.982 213.841C830.035 208.985 847.116 192.601 866.456 174.185ZM1273.3 222.865L1223.91 221.849L1232.29 201.716L1279.83 205.268L1273.3 222.87V222.865ZM1281.96 199.493L1234.66 196.005L1251.93 154.483L1297.08 158.689L1281.96 199.488V199.493ZM806.91 78.2146C812.55 78.9378 820.91 79.794 828.445 80.5119L788.434 108.946L753.412 105.74L793.922 77.5658C800.331 77.7466 804.955 77.9594 806.906 78.2146H806.91ZM744.557 104.931L713.684 102.108L751.461 76.933C763.619 77.0341 775.242 77.1723 784.75 77.3584L744.557 104.937V104.931ZM738.738 108.925L679.553 149.537L647.416 146.272L707.757 106.059L738.738 108.925ZM598.806 171.176L544.622 206.826L503.703 204.72L597.772 144.916L598.806 171.176ZM493.87 213.638C493.918 213.607 493.944 213.569 493.992 213.537L536.805 215.797C536.87 215.808 536.922 215.824 536.992 215.829C537.417 215.877 537.878 215.888 538.356 215.877L538.547 215.888L401.027 319.442L351.465 315.773L493.874 213.638H493.87ZM549.736 216.478L600.701 219.164L600.883 223.806L651.474 244.45L650.727 244.987L552.061 330.631L413.745 320.383L549.736 216.473V216.478ZM542.332 339.081L478.988 394.067L415.009 388.239L479.905 334.38L542.328 339.086L542.332 339.081ZM720.754 256.856L755.593 221.924L847.933 223.466L818.955 249.188L817.938 250.092L796.295 286.897L720.754 256.862V256.856ZM1115.46 330.881L1253.3 344.93C1253.88 344.989 1254.45 345.005 1255.01 344.989L1249.42 384.458L1105 370.86L1115.46 330.881H1115.46ZM1275.81 300.298L1330.36 305.1L1325.76 391.647L1265.44 385.968L1275.82 300.298H1275.81ZM1276.76 292.465L1283.99 232.735L1334.04 235.686L1330.78 297.15L1276.76 292.459V292.465ZM1310.11 154.802L1326.03 102.437L1365.61 107.261L1352.6 158.716L1310.11 154.802ZM797.976 45.9194L826.824 48.472L789.929 73.7849C780.113 73.5828 768.386 73.4445 756.81 73.3488L797.976 45.9141V45.9194ZM742.158 76.8479L705.002 101.294L671.227 98.2043L705.02 76.7203C716.374 76.7256 729.34 76.7682 742.158 76.8479ZM656.345 101.422L614.731 127.559L614.262 98.8584L656.345 101.422ZM597.416 135.642L597.524 138.365L492.792 204.141L454.516 202.168L558.687 131.999L597.45 133.632L597.416 135.642ZM414.318 125.931L448.815 127.383L332.494 195.888L293.444 193.877L414.318 125.931ZM318.277 204.258L153.807 301.117L108.613 297.767L278.683 202.168L318.272 204.258H318.277ZM-153.358 445.023L95.1125 305.36L140.763 308.801L-99.5344 450.314L-153.358 445.023ZM-85.6993 451.675L152.704 309.7L205.146 313.651L-25.6836 457.573L-85.7036 451.67L-85.6993 451.675ZM-11.5313 458.966L217.316 314.571L268.168 318.405L48.002 464.821L-11.5313 458.966ZM280.569 319.336L327.597 322.883L117.338 471.638L62.4715 466.246L280.569 319.341V319.336ZM132.103 473.085L340.216 323.829L390.185 327.594L189.486 478.727L132.107 473.085H132.103ZM403.03 328.562L466.786 333.369L278.153 487.443L204.563 480.205L403.025 328.562H403.03ZM293.627 488.964L403.169 398.05L467.503 404.022L361.911 495.68L293.627 488.964ZM377.771 497.238L481.834 405.352L689.429 424.613L613.549 520.419L377.771 497.238ZM647.659 523.774L809.587 308.562L1062.61 405.022C1069.17 414.142 1083.08 435.727 1083.9 448.022C1085.15 466.788 1103.86 537.622 1104.72 540.887L1105.17 542.599L1106.36 544.072C1109.45 547.88 1119.31 559.675 1132.03 571.401L647.659 523.774ZM1182.99 575.097C1171.7 572.613 1147.97 551.459 1132.35 533.421C1129 522.041 1111.35 461.502 1109.78 445.464C1108.71 434.557 1100.68 420.188 1093.81 409.664C1094.66 408.941 1095.26 408.096 1095.5 407.176L1102.47 380.549L1248.01 394.482L1221.64 580.67C1201.26 578.021 1187.27 576.043 1182.99 575.102L1182.99 575.097ZM1241.56 583.212L1257.98 447.607C1259.13 448.133 1260.44 448.511 1261.9 448.639L1322.47 453.839L1320.67 487.932L1271.77 483.986C1266.77 483.587 1262.41 486.071 1262.01 489.575C1261.62 493.101 1265.41 496.318 1270.48 496.738L1319.98 500.812L1317.64 544.801L1266.71 540.541C1261.39 540.095 1256.76 542.924 1256.35 546.891C1255.93 550.89 1259.97 554.527 1265.36 554.985L1316.87 559.382L1315.13 592.236C1287.86 588.96 1262.59 585.871 1241.56 583.217V583.212ZM1323.09 442.257L1263.48 437.227C1261.95 437.099 1260.5 437.264 1259.19 437.62L1264.23 396.029L1325.23 401.868L1323.09 442.257ZM1553.52 413.073L1342.17 393.174L1344.98 306.371L1532.79 322.909L1533.65 328.445L1553.52 413.073ZM1531.5 314.55L1345.24 298.383L1347.26 236.441L1521.01 246.683L1531.5 314.55ZM1617.09 216.489L1767.6 250.975L1533.11 237.457L1522.97 179.727L1545.22 181.801C1572.95 195.59 1613.51 214.792 1615.89 215.92L1617.09 216.489ZM1522.77 170.224C1525.16 171.564 1528.39 173.271 1532.21 175.238L1364.19 159.764L1376.08 108.516L1430.95 115.2L1432.16 115.349H1433.56C1471.68 139.093 1514.06 165.347 1522.77 170.229V170.224Z" fill="url(#paint0_linear_307_930)" fill-opacity="0.41"></path></g><defs><linearGradient id="paint0_linear_307_930" x1="724.008" y1="488.714" x2="667.886" y2="-19.7557" gradientUnits="userSpaceOnUse"><stop offset="0.22" stop-color="#F2F2F2"></stop><stop offset="0.47" stop-color="#D5FAEA" stop-opacity="0.6"></stop><stop offset="0.73" stop-color="white"></stop></linearGradient><clipPath id="clip0_307_930"><rect width="2295" height="643" fill="white" transform="translate(-428)"></rect></clipPath></defs></svg>